<svg id="Layer_1" data-name="Layer 1" xmlns="http://www.w3.org/2000/svg" viewBox="0 0 1468 433"><defs><style>.cls-1{fill:#fff;}.cls-2{fill:#6366f1;}</style></defs><title>quizhut</title><path class="cls-1" d="M586.82,320.77V267.66h-1.75c-5.49,14.75-21.18,23.87-41,23.87-32.86,0-53-23.87-53-63.16V208.12c0-39,20.38-63,53.1-63,20.12,0,35.81,9.52,41.44,24.68h1.88v-6.71c.53-11,6.7-17,17.3-17,11.26,0,17.3,7,17.3,19.58V320.77c0,12.47-6.3,19.44-17.7,19.44S586.82,333.24,586.82,320.77Zm-29.91-57.53c18.51,0,29.91-13.68,29.91-36.21V208.12c0-20.79-12.21-34.73-30.31-34.73s-29.23,14.21-29.23,37.81v14.35C527.28,249.42,538.27,263.24,556.91,263.24Z"/><path class="cls-1" d="M703.35,291.53c-27.62,0-46.8-14.75-46.8-47.74V165.21c0-12.88,6.71-19.18,17.7-19.18s17.57,6.3,17.57,19.18v69.6c0,19.84,11.27,27.35,25.35,27.35,18.24,0,29.9-12.2,29.9-29v-68c0-12.88,6.71-19.18,17.7-19.18s17.71,6.3,17.71,19.18v107c0,12.2-7.11,18.78-17.44,18.78s-16.76-5.77-17.16-17.44v-7.64H746C741.44,279.06,727.63,291.53,703.35,291.53Z"/><path class="cls-1" d="M836.12,92.79c11.67,0,20.11,7.78,20.11,18.51s-8.44,18.64-20.11,18.64c-11.4,0-20-7.92-20-18.64S824.72,92.79,836.12,92.79Zm0,198.21c-10.86,0-17.57-6.71-17.57-19.45V165.61c0-12.88,6.71-19.58,17.7-19.58s17.57,6.7,17.57,19.58V271.55C853.82,284.42,847.11,291,836.12,291Z"/><path class="cls-1" d="M894.19,254.25l59.67-77V175.4h-54c-9.93,0-15.29-5.77-15.29-14.35s5.36-14.22,15.29-14.22h77.51c11.8,0,18.64,6.31,18.64,15.69,0,6.71-2.68,12.61-9,20.25l-59.15,77.11v1.88h55.93c9.65,0,15.29,5.63,15.29,13.81,0,8.85-5.64,14.62-15.29,14.62H903.84c-11.94,0-18.77-6.57-18.77-16C885.07,267.53,888,261.76,894.19,254.25Z"/><path class="cls-1" d="M1133.56,291c-11.4,0-17.7-7-17.7-19.45V204.1c0-18.64-9.66-29.24-26.15-29.24-18.11,0-30,13.81-30,35.67v61c0,12.47-6.44,19.45-17.7,19.45s-17.57-7-17.57-19.45V115.45c0-12.47,6.3-19.58,17.7-19.58s17.57,7.11,17.57,19.58v57h1.74c4.83-16.1,22.26-27.36,42.52-27.36,29.63,0,47.33,18.51,47.33,49.48v77C1151.26,283.89,1144.83,291,1133.56,291Z"/><path class="cls-1" d="M1230,291.53c-27.62,0-46.8-14.75-46.8-47.74V165.21c0-12.88,6.7-19.18,17.7-19.18s17.57,6.3,17.57,19.18v69.6c0,19.84,11.27,27.35,25.34,27.35,18.24,0,29.91-12.2,29.91-29v-68c0-12.88,6.71-19.18,17.7-19.18s17.71,6.3,17.71,19.18v107c0,12.2-7.11,18.78-17.44,18.78s-16.76-5.77-17.16-17.44v-7.64h-1.88C1268.07,279.06,1254.25,291.53,1230,291.53Z"/><path class="cls-1" d="M1354.3,176.07h-7.24c-9.52,0-15-5.23-15-13.81s5.5-13.82,15-13.82H1355v-18.5c0-12.21,6.3-19,17.16-19s17.3,6.84,17.3,19v18.5h14.08c9.66,0,15.16,5.23,15.16,13.82s-5.5,13.81-15.16,13.81H1389.7v71.61c0,12.87,3.49,17.17,14.08,17.17,3.76,0,6.17-.54,9.39-.54,6.17,0,10.46,4.16,10.46,10.73a14,14,0,0,1-7.24,12.6c-5,3.22-12.21,4.83-21.86,4.83-28,0-40.23-11.8-40.23-40.9Z"/><path class="cls-2" d="M97.19,227.73c-8.37,3.46-16.71,6.74-24.92,10.35S56,245.61,47.7,249.46a7.58,7.58,0,0,1-.55-1.41,197.62,197.62,0,0,1-2-50c3.19-35.53,16-67.24,38.22-95.14,16.67-21,36.63-38,60.59-50.15a166.84,166.84,0,0,1,49.53-16,190.63,190.63,0,0,1,48.72-1.38q54.39,5.26,95.75,41c16.81,14.52,31,31.19,41.86,50.64a177.86,177.86,0,0,1,20.48,61,209.66,209.66,0,0,1,2,40.05c-1.35,30.88-9.77,59.6-26.47,85.76-.52.81-1.06,1.59-1.68,2.52-16.81-6.51-31.3-16.57-45.7-27,.69-1.12,1.24-2,1.8-2.9a124.53,124.53,0,0,0,18.31-52.39,148.45,148.45,0,0,0,.31-35.31,124,124,0,0,0-31.53-69.57c-9.49-10.54-19.91-19.93-32.12-27.23a115.43,115.43,0,0,0-45.1-15.56c-29.36-3.76-57,1.52-82,17.32s-42.56,37.92-52.74,65.75a134.54,134.54,0,0,0-8.12,55C97.25,225.57,97.19,226.71,97.19,227.73Z"/><path class="cls-2" d="M405.39,345v48.86c-30.95.9-58.84-8.54-85.14-23.93q-57.45,36.26-124.6,26.58c-36-5.2-67.29-20.54-93.83-45.39-22.84-21.4-38.7-47.22-48.43-77a13.75,13.75,0,0,1,1.21-.8c17.51-8.69,35.16-17,53.68-23.42a150.85,150.85,0,0,1,47.94-8.14c39.44-.39,75.52,10.6,108.67,31.68,13.61,8.65,26.39,18.49,39.31,28.12,11.86,8.84,23.76,17.63,36.47,25.25,10.61,6.35,21.62,11.82,33.61,15.1A90.34,90.34,0,0,0,398,345Zm-130.56-7.6c-.93-.86-1.54-1.48-2.21-2-3.7-3.11-7.32-6.35-11.15-9.31-28.68-22.11-60.55-36.3-97.05-39a124.2,124.2,0,0,0-36.48,2.7c-2.53.57-5,1.37-7.83,2.14.7,1,1.14,1.77,1.65,2.46a133.76,133.76,0,0,0,40.72,36.7A123.88,123.88,0,0,0,217.23,348a113.61,113.61,0,0,0,40-4.41A152.31,152.31,0,0,0,274.83,337.41Z"/></svg>