<svg id="Layer_1" data-name="Layer 1" xmlns="http://www.w3.org/2000/svg" viewBox="0 0 464 433"><defs><style>.cls-1{fill:#6366f1;}</style></defs><title>quizhut</title><path class="cls-1" d="M103.74,227.78c-8.4,3.47-16.78,6.77-25,10.39S62.37,245.73,54,249.61a7.94,7.94,0,0,1-.55-1.42,198.43,198.43,0,0,1-2-50.23c3.21-35.68,16.11-67.53,38.39-95.56C106.58,81.35,126.63,64.26,150.69,52A167.37,167.37,0,0,1,200.44,36a191,191,0,0,1,48.94-1.38Q304,39.87,345.54,75.81c16.89,14.58,31.17,31.32,42,50.86a178.43,178.43,0,0,1,20.57,61.24,209.8,209.8,0,0,1,2,40.22c-1.34,31-9.81,59.87-26.58,86.14-.52.81-1.07,1.6-1.69,2.53-16.88-6.54-31.43-16.64-45.9-27.13l1.81-2.92a125,125,0,0,0,18.39-52.62,149.18,149.18,0,0,0,.32-35.46c-3.27-26.57-13.71-49.93-31.68-69.88-9.52-10.58-20-20-32.26-27.35a116.06,116.06,0,0,0-45.3-15.62c-29.49-3.77-57.2,1.53-82.38,17.4s-42.75,38.08-53,66a135,135,0,0,0-8.16,55.22C103.81,225.61,103.74,226.75,103.74,227.78Z"/><path class="cls-1" d="M413.3,345.57v49.08c-31.08.9-59.09-8.57-85.51-24Q270.08,407,202.64,397.31c-36.14-5.23-67.59-20.63-94.25-45.59-22.94-21.49-38.87-47.43-48.63-77.33a13.75,13.75,0,0,1,1.21-.8c17.59-8.73,35.31-17.13,53.92-23.52A151.27,151.27,0,0,1,163,241.89c39.62-.39,75.86,10.65,109.16,31.82,13.67,8.69,26.5,18.57,39.48,28.24,11.91,8.88,23.86,17.71,36.63,25.36,10.65,6.38,21.71,11.88,33.75,15.17a91.18,91.18,0,0,0,23.87,3.09Zm-131.14-7.63c-.93-.86-1.54-1.48-2.21-2-3.72-3.14-7.35-6.39-11.2-9.36-28.8-22.21-60.82-36.45-97.48-39.13a124.88,124.88,0,0,0-36.63,2.71c-2.55.58-5,1.37-7.87,2.15.7,1.05,1.14,1.78,1.65,2.47a134.38,134.38,0,0,0,40.91,36.87,124.48,124.48,0,0,0,55,17,114.37,114.37,0,0,0,40.13-4.43A152.92,152.92,0,0,0,282.16,337.94Z"/></svg>